#!OML:ASF E:\inclinewalkrobotboard\Project 1\Capture day 1\Session 1\subject1.ASF
:FULLY-SPECIFIED
:DEGREES
2367
root 10.316 9.27954 -9.40438 12.2847 -1.94828 1.33777
lowerback 40.6826 3.51187 -4.94046
upperback 13.3648 2.54362 2.11739
thorax -4.90769 0.973752 3.8229
lowerneck -6.40613 -2.5704 -5.48945
upperneck 1.39095 -3.24862 7.21612
head 1.81563 -1.50632 3.20991
rclavicle 1.03368e-014 5.96354e-015
rhumerus -18.9069 3.52571 -79.3941
rradius 47.9543
rwrist -8.49006
rhand -15.5557 -30.4835
rfingers 7.12502
rthumb 10.6287 -60.1947
lclavicle 1.03368e-014 5.96354e-015
lhumerus -17.1761 -21.0052 81.9219
lradius 54.4895
lwrist -4.19761
lhand -34.0627 336.524
lfingers 7.12502
lthumb -7.2401 6.38027
rfemur -90.5429 2.10766 17.5439
rtibia 60.4901
rfoot 498.46 6.3799
rtoes -21.6233
lfemur -92.6874 0.433217 -20.8907
ltibia 62.7056
lfoot 503.427 6.13909
ltoes -56.9645
2368
root 10.3047 9.03056 -9.41111 11.7226 -2.02799 1.30869
lowerback 41.7816 3.66757 -4.9933
upperback 13.6187 2.65403 2.23359
thorax -4.96049 1.0077 3.90849
lowerneck -6.56142 -2.47178 -5.647
upperneck 1.57195 -3.1118 7.39409
head 1.9031 -1.43121 3.30836
rclavicle -8.74653e-015 -7.55382e-015
rhumerus -18.7282 4.36051 -79.306
rradius 48.8438
rwrist -8.40845
rhand -16.0697 -30.1624
rfingers 7.12502
rthumb 10.1329 -59.8984
lclavicle -8.74653e-015 -7.55382e-015
lhumerus -16.7921 -22.086 81.5451
lradius 54.783
lwrist -4.44779
lhand -34.1103 336.029
lfingers 7.12502
lthumb -7.28607 5.88358
rfemur -92.5489 1.76021 18.1247
rtibia 57.1615
rfoot 497.813 6.16741
rtoes -22.1649
lfemur -94.3175 0.59274 -20.9676
ltibia 60.3067
lfoot 503.289 6.14934
ltoes -57.0521
2369
root 10.2944 8.78368 -9.40895 11.0828 -2.18976 1.40688
lowerback 42.7877 3.86181 -5.16025
upperback 13.9309 2.76358 2.30115
thorax -4.90843 1.03629 4.00339
lowerneck -6.68858 -2.36968 -5.63188
upperneck 1.66686 -2.97444 7.38074
head 1.94703 -1.35978 3.30702
rclavicle 9.54166e-015 -4.77083e-015
rhumerus -18.567 4.99394 -79.2179
rradius 49.5444
rwrist -8.14712
rhand -17.1639 -28.7494
rfingers 7.12502
rthumb 9.07718 -58.5341
lclavicle 9.54166e-015 -4.77083e-015
lhumerus -16.4051 -22.9618 81.1276
lradius 55.0963
lwrist -5.0309
lhand -34.2233 335.73
lfingers 7.12502
lthumb -7.39506 5.58092
rfemur -93.9729 1.66802 18.3647
rtibia 54.7325
rfoot 497.562 6.03244
rtoes -22.474
lfemur -95.7979 0.756165 -21.1741
ltibia 57.9399
lfoot 503.154 6.14126
ltoes -57.0179
2370
root 10.2833 8.53556 -9.39807 10.3105 -2.28945 1.45054
lowerback 43.7467 3.97679 -5.17138
upperback 14.2794 2.83595 2.32665
thorax -4.78257 1.05131 3.99031
lowerneck -6.68412 -2.22814 -5.58507
upperneck 1.61708 -2.78326 7.30424
head 1.9127 -1.26595 3.27913
rclavicle -3.18055e-015 9.54166e-015
rhumerus -18.6245 5.39597 -79.237
rradius 50.4343
rwrist -8.14782
rhand -18.0727 -28.0664
rfingers 7.12502
rthumb 8.20018 -57.8873
lclavicle -3.18055e-015 9.54166e-015
lhumerus -16.2015 -23.6711 80.6311
lradius 55.5224
lwrist -5.63056
lhand -34.3945 335.626
lfingers 7.12502
lthumb -7.56034 5.47078
rfemur -95.0183 1.75171 18.5385
rtibia 52.7771
rfoot 497.519 5.93432
rtoes -21.8656
lfemur -97.0989 0.901742 -21.3293
ltibia 55.5537
lfoot 502.969 6.20436
ltoes -56.9542
2371
root 10.2709 8.28955 -9.37542 9.38136 -2.29123 1.53174
lowerback 44.8041 4.04108 -5.15264
upperback 14.5671 2.85648 2.36152
thorax -4.7338 1.04537 3.98996
lowerneck -6.58198 -2.10229 -5.65664
upperneck 1.60853 -2.61384 7.34911
head 1.88177 -1.18261 3.31566
rclavicle 1.03368e-014 -3.97569e-016
rhumerus -18.813 5.6837 -79.24
rradius 51.7833
rwrist -9.18824
rhand -17.5038 -30.1469
rfingers 7.12502
rthumb 8.74915 -59.9456
lclavicle 1.03368e-014 -3.97569e-016
lhumerus -16.2358 -24.1686 80.2296
lradius 55.9982
lwrist -5.88382
lhand -34.2541 335.861
lfingers 7.12502
lthumb -7.4248 5.71101
rfemur -95.949 1.70731 18.7159
rtibia 50.6673
rfoot 497.268 5.64096
rtoes -20.6531
lfemur -98.2198 0.890963 -21.4586
ltibia 53.1792
lfoot 502.756 6.26547
ltoes -57.0178
2372
root 10.2532 8.05375 -9.36328 8.52278 -2.40005 1.36103
lowerback 45.9175 4.18961 -5.09306
upperback 14.7501 2.99139 2.47318
thorax -4.81848 1.09247 4.00191
lowerneck -6.44583 -1.99225 -5.56353
upperneck 1.59303 -2.47279 7.19417
head 1.83566 -1.11718 3.24944
rclavicle 9.14409e-015 2.24627e-014
rhumerus -19.0381 6.16563 -79.2592
rradius 52.0934
rwrist -8.35903
rhand -19.1564 -29.5313
rfingers 7.12502
rthumb 7.15422 -59.3904
lclavicle 9.14409e-015 2.24627e-014
lhumerus -16.4385 -24.3538 79.9804
lradius 56.4777
lwrist -5.94578
lhand -33.9412 336.06
lfingers 7.12502
lthumb -7.12278 5.92015
rfemur -96.8325 1.89109 19.2528
rtibia 48.4719
rfoot 496.837 5.44028
rtoes -19.8605
lfemur -99.3818 1.15676 -21.3798
ltibia 50.8308
lfoot 502.549 6.27708
ltoes -57.1315
2373
root 10.2454 7.82196 -9.33004 7.69673 -2.49321 0.952689
lowerback 46.5879 4.17587 -4.71002
upperback 15.1074 3.09276 2.53866
thorax -4.57957 1.12884 3.82975
lowerneck -6.25879 -1.86366 -5.19553
upperneck 1.43155 -2.31638 6.81857
head 1.72107 -1.04832 3.05394
rclavicle 2.3059e-014 -3.57812e-015
rhumerus -19.226 6.73008 -79.3567
rradius 52.4678
rwrist -9.26537
rhand -21.3759 -28.1341
rfingers 7.12502
rthumb 5.01142 -58.0548
lclavicle 2.3059e-014 -3.57812e-015
lhumerus -16.7166 -24.2633 79.7081
lradius 56.9465
lwrist -6.17048
lhand -34.1823 335.678
lfingers 7.12502
lthumb -7.35554 5.52965
rfemur -97.6461 2.04997 19.9072
rtibia 46.3467
rfoot 496.505 5.26939
rtoes -19.7856
lfemur -100.572 1.39457 -21.0798
ltibia 48.483
lfoot 502.345 6.31038
ltoes -57.1887
2374
root 10.226 7.6 -9.33159 6.99082 -2.67614 0.554125
lowerback 48.2532 4.34568 -4.50591
upperback 14.4127 3.25941 2.65861
thorax -4.47841 1.18671 3.68639
lowerneck -6.0343 -1.75127 -4.80834
upperneck 1.3231 -2.18824 6.50528
head 1.62203 -0.992196 2.87705
rclavicle 3.97569e-015 1.59028e-014
rhumerus -19.377 6.81088 -79.3512
rradius 53.2234
rwrist -9.21895
rhand -19.9644 -28.3575
rfingers 7.12502
rthumb 6.37418 -58.2416
lclavicle 3.97569e-015 1.59028e-014
lhumerus -16.9799 -24.1294 79.4636
lradius 57.1701
lwrist -6.52697
lhand -35.1007 335.098
lfingers 7.12502
lthumb -8.24198 4.91749
rfemur -98.5381 2.48702 20.7007
rtibia 44.2814
rfoot 496.197 5.40714
rtoes -19.8715
lfemur -101.739 1.83072 -20.8144
ltibia 46.3247
lfoot 502.191 6.29385
ltoes -57.1935
2375
root 10.2104 7.38302 -9.30226 6.12934 -2.74953 0.523487
lowerback 48.8821 4.43345 -4.52588
upperback 14.6223 3.31417 2.69317
thorax -4.34059 1.19598 3.70311
lowerneck -5.98908 -1.67782 -4.91037
upperneck 1.67793 -2.10393 6.67944
head 1.73021 -0.945461 2.96156
rclavicle 3.97569e-015 8.94531e-015
rhumerus -19.7297 7.16637 -79.4253
rradius 53.566
rwrist -10.9146
rhand -21.6601 -26.2657
rfingers 7.12502
rthumb 4.73701 -56.1927
lclavicle 3.97569e-015 8.94531e-015
lhumerus -17.048 -24.3606 79.2936
lradius 56.6965
lwrist -6.57499
lhand -36.3675 334.526
lfingers 7.12502
lthumb -9.46443 4.29389
rfemur -99.3395 2.5816 21.1034
rtibia 42.1542
rfoot 495.796 5.5185
rtoes -20.48
lfemur -102.673 1.89345 -20.8144
ltibia 44.2992
lfoot 502.11 6.28341
ltoes -57.2154
2376
root 10.1958 7.18003 -9.27353 5.23353 -2.86339 0.470667
lowerback 49.6169 4.55151 -4.56426
upperback 14.7195 3.38862 2.73374
thorax -4.33781 1.21611 3.72275
lowerneck -5.80057 -1.66492 -5.02719
upperneck 2.01199 -2.1074 6.91869
head 1.81316 -0.943814 3.06843
rclavicle -2.38542e-014 -9.93923e-016
rhumerus -20.0919 7.07445 -79.3746
rradius 54.075
rwrist -10.1627
rhand -19.2671 -27.6101
rfingers 7.12502
rthumb 7.04729 -57.4728
lclavicle -2.38542e-014 -9.93923e-016
lhumerus -17.8764 -23.7186 79.3995
lradius 56.936
lwrist -7.18707
lhand -37.1731 334.03
lfingers 7.12502
lthumb -10.2416 3.76084
rfemur -99.9092 2.72137 21.5116
rtibia 40.2848
rfoot 495.439 5.64566
rtoes -21.1717
lfemur -103.473 2.01279 -20.828
ltibia 42.3229
lfoot 501.967 6.29516
ltoes -57.2431
2377
root 10.1832 6.99535 -9.24359 4.41355 -2.93786 0.41172
lowerback 50.2214 4.62842 -4.58401
upperback 14.8331 3.4308 2.76755
thorax -4.29211 1.22235 3.74253
lowerneck -5.4543 -1.65538 -4.77508
upperneck 1.98773 -2.11993 6.82054
head 1.73613 -0.955714 2.98578
rclavicle -1.47101e-014 9.74045e-015
rhumerus -20.4083 6.95564 -79.4067
rradius 54.0752
rwrist -9.91069
rhand -18.4276 -27.307
rfingers 7.12502
rthumb 7.85762 -57.141
lclavicle -1.47101e-014 9.74045e-015
lhumerus -18.2783 -23.4358 79.4087
lradius 56.6735
lwrist -7.17031
lhand -37.6891 333.983
lfingers 7.12502
lthumb -10.7394 3.68845
rfemur -100.39 2.80944 21.8196
rtibia 38.6759
rfoot 495.239 5.56354
rtoes -21.5249
lfemur -104.145 2.08016 -20.8035
ltibia 40.4754
lfoot 501.746 6.35538
ltoes -57.2073
2378
root 10.1696 6.83112 -9.21848 3.70586 -2.98918 0.185408
lowerback 50.6328 4.64748 -4.45065
upperback 15.0052 3.48792 2.80832
thorax -4.1555 1.23922 3.69862
lowerneck -5.36213 -1.62363 -4.48569
upperneck 2.02985 -2.09555 6.6399
head 1.7223 -0.945775 2.87031
rclavicle -1.98785e-014 -5.36719e-015
rhumerus -20.6548 6.74479 -79.4726
rradius 53.9414
rwrist -9.53474
rhand -17.8506 -27.4219
rfingers 7.12502
rthumb 8.41449 -57.2343
lclavicle -1.98785e-014 -5.36719e-015
lhumerus -18.2954 -23.2795 79.3394
lradius 56.1464
lwrist -6.55325
lhand -37.3282 334.758
lfingers 7.12502
lthumb -10.3913 4.4811
rfemur -100.814 2.95584 22.334
rtibia 37.2293
rfoot 495.023 5.54896
rtoes -21.6225
lfemur -104.743 2.20991 -20.6327
ltibia 38.8443
lfoot 501.516 6.43661
ltoes -57.1309
2379
root 10.1563 6.68891 -9.19086 2.99395 -3.09729 -0.14804
lowerback 50.9699 4.676 -4.24525
upperback 15.1953 3.59122 2.8426
thorax -3.99029 1.28017 3.5985
lowerneck -5.36927 -1.65611 -4.30684
upperneck 2.33055 -2.16407 6.64089
head 1.82274 -0.975527 2.83691
rclavicle 9.14409e-015 -1.09332e-014
rhumerus -20.912 6.71781 -79.5377
rradius 53.5547
rwrist -9.14747
rhand -18.032 -27.393
rfingers 7.12502
rthumb 8.23943 -57.2123
lclavicle 9.14409e-015 -1.09332e-014
lhumerus -18.2697 -23.1895 79.2624
lradius 55.7539
lwrist -5.55626
lhand -36.2342 336.357
lfingers 7.12502
lthumb -9.33583 6.13023
rfemur -101.04 3.16335 22.9696
rtibia 35.9752
rfoot 494.785 5.5777
rtoes -21.6217
lfemur -105.155 2.48292 -20.3907
ltibia 37.4124
lfoot 501.298 6.5188
ltoes -57.0988
